<?xml version="1.0" standalone="no"?>
<svg version="1.1" id="downloadSvg" xmlns="http://www.w3.org/2000/svg" xmlns:xlink="http://www.w3.org/1999/xlink" x="0px" y="0px" viewBox="0 0 1200 1200" enable-background="new 0 0 1200 1200" xml:space="preserve" height="2048" width="2048">
<g>
	<path fill="#786B61" d="M1141.951,601.753H51.738c-0.96,0-1.738-0.781-1.738-1.74c0-0.96,0.778-1.736,1.738-1.736h1090.213&#10;&#9;&#9;c0.959,0,1.74,0.776,1.74,1.736C1143.691,600.973,1142.911,601.753,1141.951,601.753z" style="fill: rgb(255, 255, 255);"/>
	<path fill="#786B61" d="M58.826,589.38c0,0,3.83,10.283,13.98,10.215C72.805,599.595,69.512,590.656,58.826,589.38z" style="fill: rgb(255, 255, 255);"/>
	<path fill="#786B61" d="M71.664,589.38c0,0,3.83,10.283,13.981,10.215C85.645,599.595,82.352,590.656,71.664,589.38z" style="fill: rgb(255, 255, 255);"/>
	<path fill="#786B61" d="M85.645,600.402c0,0-3.831,10.284-13.981,10.218C71.664,610.62,74.958,601.679,85.645,600.402z" style="fill: rgb(255, 255, 255);"/>
	<path fill="#786B61" d="M72.805,600.402c0,0-3.829,10.284-13.98,10.218C58.826,610.62,62.118,601.679,72.805,600.402z" style="fill: rgb(255, 255, 255);"/>
	<path fill="#786B61" d="M1132.439,590.292c0,0-0.865,4.639,7.216,9.58c-8.081,4.941-7.216,9.578-7.216,9.578&#10;&#9;&#9;c5.111-6.653,15.168-9.042,17.561-9.529C1150,599.922,1137.55,596.945,1132.439,590.292z" style="fill: rgb(255, 255, 255);"/>
</g>
</svg>