<?xml version="1.0" standalone="no"?>
<svg version="1.1" id="downloadSvg" xmlns="http://www.w3.org/2000/svg" xmlns:xlink="http://www.w3.org/1999/xlink" x="0px" y="0px" viewBox="0 0 1200 1200" enable-background="new 0 0 1200 1200" xml:space="preserve" height="2048" width="2048">
<g>
	<path fill="#786B61" d="M707.877,598.182c-18.535-0.222-66.477-5.88-66.477-5.88c-5.103,0.223-8.543,6.163-8.543,6.163h-9.207&#10;&#9;&#9;c-0.527-3.216-2.627-5.627-5.145-5.627c-2.525,0-4.625,2.411-5.15,5.627h-8.581c-0.524-3.216-2.624-5.627-5.145-5.627&#10;&#9;&#9;c-2.522,0-4.623,2.411-5.148,5.627H585.9c-0.525-3.216-2.627-5.627-5.148-5.627c-2.522,0-4.622,2.411-5.146,5.627h-7.769&#10;&#9;&#9;c-2.982-5.727-10.903-6.527-10.903-6.527c-7.191,3.597-62.019,6.293-62.019,6.293L50,600.028l444.914,1.928&#10;&#9;&#9;c14.982-0.998,61.926,6.107,61.926,6.107c10.21-2.221,10.765-5.994,10.765-5.994h8.108c0.648,2.97,2.646,5.15,5.039,5.15&#10;&#9;&#9;c2.393,0,4.389-2.18,5.038-5.15h8.798c0.649,2.97,2.647,5.15,5.04,5.15c2.391,0,4.389-2.18,5.038-5.15h8.798&#10;&#9;&#9;c0.647,2.97,2.645,5.15,5.041,5.15c2.391,0,4.389-2.18,5.036-5.15h9.213c2.663,4.883,8.543,5.439,8.543,5.439&#10;&#9;&#9;c2.885-2,66.247-5.439,66.247-5.439l442.456-2L707.877,598.182z" style="fill: rgb(255, 255, 255);"/>
</g>
</svg>