<?xml version="1.0" standalone="no"?>
<svg version="1.1" id="downloadSvg" xmlns="http://www.w3.org/2000/svg" xmlns:xlink="http://www.w3.org/1999/xlink" x="0px" y="0px" viewBox="0 0 1200 1200" enable-background="new 0 0 1200 1200" xml:space="preserve" height="2048" width="2048">
<g>
	<g>
		<g>
			<path fill="#786B61" d="M429.624,590.554c6.843,19.865,35.474,29.489,54.646,29.259c-19.255-2.544-48.186-11.872-53.915-33.049&#10;&#9;&#9;&#9;&#9;c-1.711-6.334-2.037-13.631,1.103-19.588c3.408-6.468,12.039-8.707,18.562-6.225c7.582,2.882,12.065,12.015,10.567,19.768&#10;&#9;&#9;&#9;&#9;c-1.173,6.016-6.345,11.175-12.719,10.466c-6.519-0.726-10.433-7.666-9.633-13.71c0.29-2.178,1.167-4.716,2.943-6.157&#10;&#9;&#9;&#9;&#9;c4.395-3.551,11.739,1.281,9.304,6.722c-0.923,2.047-3,2.928-5.038,2.331c3.902,1.316,6.928-0.833,6.613-5.102&#10;&#9;&#9;&#9;&#9;c-0.197-2.735-1.391-4.895-3.852-6.108c-4.209-2.092-8.457-0.728-11.129,2.906c-1.57,2.139-2.097,5.913-1.948,8.464&#10;&#9;&#9;&#9;&#9;c0.575,9.637,11.309,18.674,20.632,12.815c5.075-3.178,7.233-9.17,7.176-14.956c-0.147-12.739-11.771-26.194-25.19-21.082&#10;&#9;&#9;&#9;&#9;C424.613,562.322,425.876,579.682,429.624,590.554z" style="fill: rgb(255, 255, 255);"/>
			<path fill="#786B61" d="M346.201,565.38c-0.037,0.134-0.077,0.268-0.134,0.41C346.124,565.648,346.157,565.514,346.201,565.38z" style="fill: rgb(255, 255, 255);"/>
			<path fill="#786B61" d="M368.129,572.563c-10.427,2.792-23.012,10.745-32.226,0.891c-7.907-8.453,2.424-19.775,12.149-16.046&#10;&#9;&#9;&#9;&#9;c3.685,1.417,4.961,5.779,2.961,9.089c-1.224,2.009-3.979,2.836-6.15,2.847c-2.603,0.015-5.781-2.913-4.242-5.593&#10;&#9;&#9;&#9;&#9;c1.421-2.476,6.336-1.276,5.58,1.63c1.083-3.461-3.204-5.389-5.709-3.09c-1.915,1.763-1.25,5.235-0.121,7.209&#10;&#9;&#9;&#9;&#9;c1.465,2.557,4.729,3.972,7.676,3.332c2.191-0.482,4.413-2.079,5.396-4.088c5.259-10.719-7.453-19.441-16.893-13.761&#10;&#9;&#9;&#9;&#9;c-3.459,2.086-5.67,6.484-6.042,10.442c-0.391,4.097,1.026,7.74,3.608,10.874c2.551,3.086,5.505,4.729,8.67,5.409&#10;&#9;&#9;&#9;&#9;c8.06,1.742,17.513-2.685,25.227-5.089c12.381-3.867,23.96-1.627,35.928,2.185C392.413,574.1,381.738,568.909,368.129,572.563z" style="fill: rgb(255, 255, 255);"/>
			<path fill="#786B61" d="M364.008,592.048c21.512-12.188,41.254-5.51,62.125,3.728c-19.814-17.408-46.662-19.768-69.428-7.999&#10;&#9;&#9;&#9;&#9;c-7.933,4.095-16.572,9.192-25.8,8.968c-6.356-0.149-12.085-4.718-14.373-10.545c-1.544-3.952-3.279-14.068,2.07-16.329&#10;&#9;&#9;&#9;&#9;c-9.368,3.95-13.796,15.884-9.887,25.317c-0.2-0.474-2.941-1.388-3.492-1.682c-1.154-0.634-2.27-1.325-3.345-2.06&#10;&#9;&#9;&#9;&#9;c-2.237-1.52-4.312-3.266-6.273-5.124c-3.621-3.446-7.922-6.918-9.139-12.006c-1.358,5.709,1.454,11.484,4.134,16.41&#10;&#9;&#9;&#9;&#9;c2.722,5.038,6.689,9.464,11.559,12.495c8.977,5.608,19.674,6.639,29.912,4.615C343.856,605.51,353.768,597.854,364.008,592.048z&#10;&#9;&#9;&#9;&#9; M313.567,599.501c-3.878-3.288,0.358-5.613,3.869-4.461c3.595,1.18,7.043,2.507,10.734,3.268&#10;&#9;&#9;&#9;&#9;c0.357,0.075,0.717,0.142,1.083,0.202c4.279,0.737,8.33,0.298,12.583-0.746c-4.079,2.364-9.982,3.518-14.609,4.15&#10;&#9;&#9;&#9;&#9;C322.717,602.532,317.239,602.622,313.567,599.501z" style="fill: rgb(255, 255, 255);"/>
			<path fill="#786B61" d="M363.971,614.507c0.974-2.15,2.448-4.018,4.176-5.613c0.57-0.52,5.961-3.652,5.961-3.843&#10;&#9;&#9;&#9;&#9;c-0.079,3.81,2.031,7.468,4.549,10.192c2.581,2.79,5.422,5.257,9.08,6.383c-2.647-0.814-3.698-4.79-4.158-7.067&#10;&#9;&#9;&#9;&#9;c-0.667-3.231-0.334-6.543,1.434-9.414c4.472-7.242,15.647-7.279,23.016-6.207c19.011,2.785,34.66,15.667,52.602,21.22&#10;&#9;&#9;&#9;&#9;c19.411,6.014,40.516,8.433,60.721,5.819c11.291-1.467,22.415-4.735,32.39-10.247c-0.658,0.452-1.307,0.891-1.961,1.32&#10;&#9;&#9;&#9;&#9;c-14.276,9.4-31.09,14.585-48.013,16.283c-16.934,1.7-32.807-2.84-49.187-6.383c-17.978-3.893-32.2-4.823-46.482,7.233&#10;&#9;&#9;&#9;&#9;c2.468-2.079,5.152-3.443,8.236-4.523c13.392-4.685,29.019-2.369,42.521,0.678c8.24,1.86,16.443,3.941,24.817,5.165&#10;&#9;&#9;&#9;&#9;c7.946,1.154,15.88,0.919,23.839-0.02c16.744-1.978,33.018-7.843,47-17.274c16.719-11.271,24.08-24.266,30.362-42.434&#10;&#9;&#9;&#9;&#9;c-4.501,13.002-24.633,13.585-35.544,12.201c-7.709-0.967-24.863-6.836-29.388-16.243c-0.711-1.5-1.121-3.088-1.101-4.768&#10;&#9;&#9;&#9;&#9;c0-0.384-0.103-0.397-0.18-0.608c0.774,13.98,15.974,21.376,28.085,23.69c10.324,1.963,23.729,1.627,32.719-4.825&#10;&#9;&#9;&#9;&#9;c-0.846,1.812-1.777,3.575-2.794,5.279c-5.562,6.641-14.302,10.208-22.332,12.912c-8.348,2.814-17.134,4.452-25.938,4.915&#10;&#9;&#9;&#9;&#9;c-12.848,0.669-35.59-3.928-43.138-17.41c6.729,14.622,25.754,20.24,41.58,19.979c9.324-0.16,18.641-1.932,27.495-4.779&#10;&#9;&#9;&#9;&#9;c5.595-1.794,11.528-4.069,16.559-7.446c-3.191,3.805-6.856,7.244-10.964,10.265c-10.354,7.569-22.869,11.813-35.411,13.967&#10;&#9;&#9;&#9;&#9;c-28.662,4.937-58.291-1.586-84.494-13.37c-10.194-4.588-19.119-11.429-29.372-15.904c-10.085-4.406-21.018-5.896-31.743-3.154&#10;&#9;&#9;&#9;&#9;c-8.286,2.121-15.899,7.83-19.564,15.616c-3.645,7.74-0.364,16.673,5.525,22.369&#10;&#9;&#9;&#9;&#9;C362.028,624.792,362.106,618.574,363.971,614.507z M375.113,596.373c1.757-4.862,11.144-5.334,15.257-5.689&#10;&#9;&#9;&#9;&#9;c4.185-0.36,8.363,0.641,12.464,1.32c-4.775-0.763-10.175-0.838-14.732,1.053c-3.691,1.535-5.766,7.135-9.905,7.457&#10;&#9;&#9;&#9;&#9;C375.529,600.712,374.229,598.847,375.113,596.373z" style="fill: rgb(255, 255, 255);"/>
		</g>
		<g>
			<path fill="#786B61" d="M584.117,616.218c6.472,4.395,17.147,0.873,22.817-3.466c-6.31,3.529-17.011,7.207-23.44,2.176&#10;&#9;&#9;&#9;&#9;c-1.935-1.505-3.652-3.612-4.042-6.082c-0.43-2.696,1.647-5.29,4.146-6.001c2.904-0.827,6.273,0.891,7.556,3.544&#10;&#9;&#9;&#9;&#9;c0.994,2.049,0.608,4.735-1.456,5.953c-2.108,1.23-4.819,0.037-5.926-1.943c-0.404-0.717-0.704-1.669-0.493-2.492&#10;&#9;&#9;&#9;&#9;c0.513-2.042,3.774-2.239,4.261-0.07c0.186,0.82-0.237,1.544-0.98,1.821c1.461-0.483,1.884-1.801,0.833-3.001&#10;&#9;&#9;&#9;&#9;c-0.66-0.768-1.5-1.147-2.507-0.961c-1.724,0.314-2.685,1.673-2.665,3.358c0,0.98,0.693,2.224,1.307,2.941&#10;&#9;&#9;&#9;&#9;c2.32,2.753,7.536,3.051,9.003-0.776c0.8-2.075,0.114-4.343-1.193-6.053c-2.888-3.768-9.348-5.185-12.206-0.673&#10;&#9;&#9;&#9;&#9;C576.331,608.921,580.579,613.81,584.117,616.218z" style="fill: rgb(255, 255, 255);"/>
			<path fill="#786B61" d="M553.642,627.316c0.026,0.053,0.037,0.103,0.05,0.158C553.679,627.419,553.659,627.369,553.642,627.316z" style="fill: rgb(255, 255, 255);"/>
			<path fill="#786B61" d="M561.785,624.561c-2.485,3.169-4.465,8.343-9.414,7.459c-4.235-0.759-3.685-6.431,0.046-7.49&#10;&#9;&#9;&#9;&#9;c1.415-0.406,2.761,0.621,2.902,2.049c0.09,0.873-0.544,1.728-1.191,2.215c-0.77,0.59-2.371,0.423-2.505-0.715&#10;&#9;&#9;&#9;&#9;c-0.136-1.055,1.601-1.794,2.018-0.763c-0.45-1.272-2.154-0.886-2.384,0.36c-0.186,0.948,0.801,1.838,1.571,2.171&#10;&#9;&#9;&#9;&#9;c1.004,0.439,2.294,0.136,3.024-0.719c0.544-0.632,0.858-1.605,0.704-2.419c-0.827-4.365-6.562-4.135-8.106-0.334&#10;&#9;&#9;&#9;&#9;c-0.563,1.393-0.25,3.198,0.526,4.459c0.794,1.301,2.031,2.077,3.505,2.435c1.448,0.351,2.691,0.173,3.788-0.32&#10;&#9;&#9;&#9;&#9;c2.785-1.274,4.619-4.709,6.382-7.144c2.825-3.913,6.773-5.825,11.199-7.369C569.359,619.611,565.027,620.447,561.785,624.561z" style="fill: rgb(255, 255, 255);"/>
			<path fill="#786B61" d="M564.9,631.297c3.685-8.427,11.065-10.844,19.345-12.745c-9.791-0.77-18.32,4.516-22.479,13.103&#10;&#9;&#9;&#9;&#9;c-1.448,2.987-2.888,6.435-5.683,8.42c-1.928,1.375-4.665,1.294-6.639,0.07c-1.333-0.838-4.115-3.465-3.025-5.33&#10;&#9;&#9;&#9;&#9;c-1.908,3.262-0.564,7.804,2.698,9.751c-0.16-0.096-1.184,0.237-1.41,0.276c-0.48,0.064-0.974,0.107-1.467,0.132&#10;&#9;&#9;&#9;&#9;c-0.998,0.044-2.005-0.011-3.005-0.132c-1.845-0.215-3.909-0.289-5.396-1.535c0.86,2.002,2.994,3.095,4.889,3.968&#10;&#9;&#9;&#9;&#9;c1.937,0.893,4.108,1.323,6.236,1.149c3.921-0.336,7.337-2.415,9.933-5.306C561.895,639.805,563.139,635.31,564.9,631.297z&#10;&#9;&#9;&#9;&#9; M551.521,644.766c-1.877-0.116-1.141-1.753,0.167-2.191c1.331-0.45,2.652-0.827,3.928-1.417&#10;&#9;&#9;&#9;&#9;c0.121-0.062,0.243-0.119,0.371-0.186c1.437-0.73,2.538-1.768,3.575-3.025c-0.684,1.616-2.185,3.272-3.421,4.492&#10;&#9;&#9;&#9;&#9;C554.929,643.628,553.321,644.88,551.521,644.766z" style="fill: rgb(255, 255, 255);"/>
			<path fill="#786B61" d="M569.892,638c-0.186-0.86-0.167-1.75-0.007-2.603c0.05-0.281,0.961-2.415,0.923-2.478&#10;&#9;&#9;&#9;&#9;c0.827,1.156,2.274,1.779,3.632,2.031c1.39,0.25,2.781,0.347,4.121-0.127c-0.961,0.344-2.167-0.608-2.814-1.18&#10;&#9;&#9;&#9;&#9;c-0.91-0.818-1.551-1.878-1.671-3.128c-0.283-3.152,3.042-5.663,5.479-6.977c6.286-3.417,13.82-3.064,20.409-5.409&#10;&#9;&#9;&#9;&#9;c7.124-2.544,13.949-6.527,19.395-11.811c3.031-2.952,5.621-6.413,7.363-10.278c-0.096,0.276-0.184,0.557-0.287,0.833&#10;&#9;&#9;&#9;&#9;c-2.154,5.985-6.012,11.28-10.677,15.561c-4.665,4.275-10.412,6.468-16.083,9.06c-6.229,2.856-10.668,5.744-12.239,12.53&#10;&#9;&#9;&#9;&#9;c0.263-1.178,0.77-2.178,1.443-3.191c2.945-4.376,8.117-7.176,12.826-9.278c2.864-1.281,5.775-2.496,8.543-3.998&#10;&#9;&#9;&#9;&#9;c2.634-1.43,4.946-3.261,7.106-5.319c4.542-4.325,8.087-9.705,10.151-15.636c2.465-7.082,1.768-12.594-0.417-19.408&#10;&#9;&#9;&#9;&#9;c1.564,4.876-4.314,9.534-7.869,11.559c-2.511,1.436-8.933,3.505-12.379,1.711c-0.553-0.281-1.02-0.665-1.391-1.171&#10;&#9;&#9;&#9;&#9;c-0.083-0.116-0.123-0.097-0.186-0.147c3.345,3.998,9.521,2.812,13.649,0.8c3.518-1.715,7.433-4.805,8.677-8.734&#10;&#9;&#9;&#9;&#9;c0.153,0.73,0.268,1.461,0.351,2.193c-0.191,3.22-1.991,6.227-3.785,8.828c-1.86,2.7-4.115,5.145-6.626,7.258&#10;&#9;&#9;&#9;&#9;c-3.691,3.06-11.491,6.762-16.744,4.424c5.26,2.86,12.186,0.294,16.844-3.318c2.75-2.125,5.128-4.731,7.126-7.558&#10;&#9;&#9;&#9;&#9;c1.27-1.772,2.531-3.779,3.275-5.907c-0.103,1.847-0.423,3.685-0.974,5.501c-1.397,4.566-4.185,8.622-7.44,12.057&#10;&#9;&#9;&#9;&#9;c-7.446,7.867-17.724,12.528-28.162,14.864c-4.062,0.906-8.247,0.855-12.304,1.81c-3.985,0.937-7.573,2.928-10.155,6.139&#10;&#9;&#9;&#9;&#9;c-2.007,2.481-3,5.88-2.351,9.016c0.647,3.121,3.612,5.049,6.632,5.433C571.609,641.491,570.245,639.627,569.892,638z&#10;&#9;&#9;&#9;&#9; M569.174,630.11c-0.566-1.838,2.132-4.082,3.281-5.097c1.165-1.048,2.625-1.676,4.005-2.386&#10;&#9;&#9;&#9;&#9;c-1.59,0.833-3.224,2.018-4.161,3.597c-0.755,1.279-0.127,3.413-1.288,4.428C570.262,631.308,569.462,631.04,569.174,630.11z" style="fill: rgb(255, 255, 255);"/>
		</g>
		<g>
			<path fill="#786B61" d="M627.011,616.218c-6.472,4.395-17.154,0.873-22.812-3.466c6.306,3.529,17.013,7.207,23.44,2.176&#10;&#9;&#9;&#9;&#9;c1.921-1.505,3.639-3.612,4.044-6.082c0.421-2.696-1.654-5.29-4.154-6.001c-2.902-0.827-6.273,0.891-7.554,3.544&#10;&#9;&#9;&#9;&#9;c-0.994,2.049-0.603,4.735,1.461,5.953c2.101,1.23,4.812,0.037,5.926-1.943c0.399-0.717,0.706-1.669,0.493-2.492&#10;&#9;&#9;&#9;&#9;c-0.518-2.042-3.779-2.239-4.272-0.07c-0.18,0.82,0.243,1.544,0.98,1.821c-1.456-0.483-1.873-1.801-0.833-3.001&#10;&#9;&#9;&#9;&#9;c0.673-0.768,1.511-1.147,2.511-0.961c1.717,0.314,2.678,1.673,2.665,3.358c-0.004,0.98-0.684,2.224-1.301,2.941&#10;&#9;&#9;&#9;&#9;c-2.318,2.753-7.54,3.051-9.014-0.776c-0.796-2.075-0.11-4.343,1.204-6.053c2.884-3.768,9.348-5.185,12.201-0.673&#10;&#9;&#9;&#9;&#9;C634.795,608.921,630.547,613.81,627.011,616.218z" style="fill: rgb(255, 255, 255);"/>
			<path fill="#786B61" d="M657.494,627.316c-0.026,0.053-0.046,0.103-0.053,0.158C657.448,627.419,657.467,627.369,657.494,627.316&#10;&#9;&#9;&#9;&#9;z" style="fill: rgb(255, 255, 255);"/>
			<path fill="#786B61" d="M649.348,624.561c2.481,3.169,4.461,8.343,9.407,7.459c4.242-0.759,3.685-6.431-0.037-7.49&#10;&#9;&#9;&#9;&#9;c-1.417-0.406-2.777,0.621-2.917,2.049c-0.083,0.873,0.557,1.728,1.198,2.215c0.77,0.59,2.373,0.423,2.513-0.715&#10;&#9;&#9;&#9;&#9;c0.127-1.055-1.603-1.794-2.018-0.763c0.441-1.272,2.145-0.886,2.382,0.36c0.173,0.948-0.794,1.838-1.57,2.171&#10;&#9;&#9;&#9;&#9;c-1.011,0.439-2.292,0.136-3.029-0.719c-0.553-0.632-0.847-1.605-0.7-2.419c0.82-4.365,6.556-4.135,8.1-0.334&#10;&#9;&#9;&#9;&#9;c0.57,1.393,0.25,3.198-0.52,4.459c-0.801,1.301-2.038,2.077-3.505,2.435c-1.448,0.351-2.698,0.173-3.785-0.32&#10;&#9;&#9;&#9;&#9;c-2.794-1.274-4.628-4.709-6.382-7.144c-2.834-3.913-6.78-5.825-11.201-7.369C641.768,619.611,646.106,620.447,649.348,624.561z" style="fill: rgb(255, 255, 255);"/>
			<path fill="#786B61" d="M652.225,643.119c2.601,2.891,6.016,4.97,9.944,5.306c2.128,0.173,4.301-0.256,6.229-1.149&#10;&#9;&#9;&#9;&#9;c1.897-0.873,4.031-1.965,4.902-3.968c-1.507,1.246-3.555,1.32-5.409,1.535c-1,0.121-1.998,0.175-3.011,0.132&#10;&#9;&#9;&#9;&#9;c-0.487-0.024-0.981-0.068-1.454-0.132c-0.23-0.039-1.25-0.373-1.423-0.276c3.275-1.947,4.621-6.49,2.704-9.751&#10;&#9;&#9;&#9;&#9;c1.09,1.864-1.684,4.492-3.025,5.33c-1.978,1.224-4.702,1.305-6.632-0.07c-2.799-1.985-4.242-5.433-5.689-8.42&#10;&#9;&#9;&#9;&#9;c-4.159-8.587-12.688-13.872-22.479-13.103c8.286,1.902,15.656,4.319,19.345,12.745&#10;&#9;&#9;&#9;&#9;C647.99,635.31,649.238,639.805,652.225,643.119z M654.993,642.439c-1.244-1.219-2.742-2.875-3.428-4.492&#10;&#9;&#9;&#9;&#9;c1.031,1.257,2.147,2.294,3.582,3.025c0.129,0.068,0.25,0.125,0.366,0.186c1.268,0.59,2.594,0.967,3.935,1.417&#10;&#9;&#9;&#9;&#9;c1.294,0.439,2.042,2.075,0.154,2.191C657.814,644.88,656.197,643.628,654.993,642.439z" style="fill: rgb(255, 255, 255);"/>
			<path fill="#786B61" d="M637.853,641.952c3.018-0.384,5.999-2.312,6.632-5.433c0.641-3.136-0.353-6.536-2.344-9.016&#10;&#9;&#9;&#9;&#9;c-2.59-3.211-6.179-5.202-10.164-6.139c-4.051-0.954-8.24-0.904-12.304-1.81c-10.438-2.336-20.722-6.996-28.162-14.864&#10;&#9;&#9;&#9;&#9;c-3.255-3.435-6.042-7.49-7.433-12.057c-0.55-1.816-0.877-3.654-0.98-5.501c0.744,2.127,2.007,4.134,3.275,5.907&#10;&#9;&#9;&#9;&#9;c2,2.827,4.384,5.433,7.126,7.558c4.658,3.612,11.585,6.179,16.853,3.318c-5.262,2.338-13.059-1.364-16.75-4.424&#10;&#9;&#9;&#9;&#9;c-2.514-2.112-4.762-4.558-6.626-7.258c-1.787-2.601-3.602-5.608-3.781-8.828c0.083-0.733,0.199-1.463,0.347-2.193&#10;&#9;&#9;&#9;&#9;c1.244,3.928,5.158,7.019,8.676,8.734c4.126,2.011,10.304,3.198,13.653-0.8c-0.077,0.05-0.101,0.031-0.191,0.147&#10;&#9;&#9;&#9;&#9;c-0.366,0.507-0.84,0.891-1.397,1.171c-3.441,1.794-9.854-0.274-12.368-1.711c-3.562-2.024-9.438-6.683-7.88-11.559&#10;&#9;&#9;&#9;&#9;c-2.174,6.815-2.878,12.326-0.41,19.408c2.057,5.931,5.599,11.311,10.15,15.636c2.165,2.057,4.479,3.889,7.1,5.319&#10;&#9;&#9;&#9;&#9;c2.775,1.502,5.683,2.717,8.554,3.998c4.696,2.101,9.874,4.902,12.822,9.278c0.68,1.013,1.174,2.013,1.441,3.191&#10;&#9;&#9;&#9;&#9;c-1.57-6.786-6.016-9.674-12.232-12.53c-5.678-2.592-11.418-4.786-16.083-9.06c-4.672-4.281-8.517-9.576-10.681-15.561&#10;&#9;&#9;&#9;&#9;c-0.096-0.276-0.193-0.557-0.29-0.833c1.744,3.865,4.325,7.326,7.37,10.278c5.439,5.284,12.265,9.266,19.397,11.811&#10;&#9;&#9;&#9;&#9;c6.58,2.345,14.116,1.991,20.402,5.409c2.428,1.314,5.766,3.825,5.479,6.977c-0.116,1.25-0.757,2.31-1.667,3.128&#10;&#9;&#9;&#9;&#9;c-0.654,0.572-1.851,1.524-2.825,1.18c1.345,0.474,2.742,0.377,4.132,0.127c1.36-0.252,2.801-0.875,3.634-2.031&#10;&#9;&#9;&#9;&#9;c-0.053,0.064,0.858,2.198,0.91,2.478c0.167,0.853,0.184,1.744-0.006,2.603C640.877,639.627,639.517,641.491,637.853,641.952z&#10;&#9;&#9;&#9;&#9; M640.114,630.652c-1.16-1.015-0.524-3.149-1.287-4.428c-0.937-1.579-2.557-2.763-4.159-3.597&#10;&#9;&#9;&#9;&#9;c1.377,0.711,2.845,1.338,4.011,2.386c1.141,1.015,3.838,3.259,3.275,5.097C641.665,631.04,640.864,631.308,640.114,630.652z" style="fill: rgb(255, 255, 255);"/>
		</g>
		<g>
			<path fill="#786B61" d="M781.905,590.554c-6.836,19.865-35.465,29.489-54.641,29.259c19.255-2.544,48.189-11.872,53.913-33.049&#10;&#9;&#9;&#9;&#9;c1.713-6.334,2.046-13.631-1.094-19.588c-3.411-6.468-12.05-8.707-18.566-6.225c-7.584,2.882-12.07,12.015-10.563,19.768&#10;&#9;&#9;&#9;&#9;c1.169,6.016,6.334,11.175,12.723,10.466c6.508-0.726,10.429-7.666,9.631-13.71c-0.292-2.178-1.174-4.716-2.952-6.157&#10;&#9;&#9;&#9;&#9;c-4.389-3.551-11.738,1.281-9.293,6.722c0.919,2.047,2.989,2.928,5.033,2.331c-3.904,1.316-6.935-0.833-6.619-5.102&#10;&#9;&#9;&#9;&#9;c0.204-2.735,1.399-4.895,3.851-6.108c4.211-2.092,8.459-0.728,11.129,2.906c1.57,2.139,2.106,5.913,1.952,8.464&#10;&#9;&#9;&#9;&#9;c-0.575,9.637-11.313,18.674-20.637,12.815c-5.069-3.178-7.229-9.17-7.168-14.956c0.14-12.739,11.763-26.194,25.179-21.082&#10;&#9;&#9;&#9;&#9;C786.921,562.322,785.656,579.682,781.905,590.554z" style="fill: rgb(255, 255, 255);"/>
			<path fill="#786B61" d="M865.336,565.38c0.035,0.134,0.075,0.268,0.145,0.41C865.41,565.648,865.377,565.514,865.336,565.38z" style="fill: rgb(255, 255, 255);"/>
			<path fill="#786B61" d="M843.403,572.563c10.429,2.792,23.018,10.745,32.23,0.891c7.905-8.453-2.421-19.775-12.142-16.046&#10;&#9;&#9;&#9;&#9;c-3.693,1.417-4.97,5.779-2.963,9.089c1.217,2.009,3.968,2.836,6.148,2.847c2.594,0.015,5.773-2.913,4.237-5.593&#10;&#9;&#9;&#9;&#9;c-1.421-2.476-6.339-1.276-5.578,1.63c-1.086-3.461,3.211-5.389,5.703-3.09c1.919,1.763,1.254,5.235,0.125,7.209&#10;&#9;&#9;&#9;&#9;c-1.463,2.557-4.718,3.972-7.672,3.332c-2.195-0.482-4.415-2.079-5.4-4.088c-5.257-10.719,7.451-19.441,16.897-13.761&#10;&#9;&#9;&#9;&#9;c3.454,2.086,5.665,6.484,6.04,10.442c0.388,4.097-1.024,7.74-3.604,10.874c-2.555,3.086-5.514,4.729-8.679,5.409&#10;&#9;&#9;&#9;&#9;c-8.065,1.742-17.513-2.685-25.225-5.089c-12.381-3.867-23.953-1.627-35.935,2.185&#10;&#9;&#9;&#9;&#9;C819.121,574.1,829.802,568.909,843.403,572.563z" style="fill: rgb(255, 255, 255);"/>
			<path fill="#786B61" d="M879.463,607.837c10.238,2.024,20.933,0.994,29.916-4.615c4.865-3.031,8.828-7.457,11.559-12.495&#10;&#9;&#9;&#9;&#9;c2.667-4.926,5.496-10.701,4.137-16.41c-1.219,5.088-5.525,8.56-9.142,12.006c-1.959,1.858-4.038,3.604-6.271,5.124&#10;&#9;&#9;&#9;&#9;c-1.083,0.735-2.2,1.425-3.351,2.06c-0.544,0.294-3.288,1.209-3.483,1.682c3.9-9.433-0.535-21.367-9.898-25.317&#10;&#9;&#9;&#9;&#9;c5.352,2.261,3.617,12.377,2.068,16.329c-2.272,5.828-8.012,10.396-14.366,10.545c-9.22,0.224-17.864-4.873-25.797-8.968&#10;&#9;&#9;&#9;&#9;c-22.768-11.769-49.61-9.409-69.433,7.999c20.873-9.238,40.62-15.917,62.125-3.728&#10;&#9;&#9;&#9;&#9;C857.762,597.854,867.676,605.51,879.463,607.837z M884.312,601.913c-4.634-0.632-10.537-1.785-14.605-4.15&#10;&#9;&#9;&#9;&#9;c4.242,1.044,8.297,1.483,12.574,0.746c0.369-0.059,0.724-0.127,1.086-0.202c3.689-0.761,7.141-2.088,10.734-3.268&#10;&#9;&#9;&#9;&#9;c3.509-1.151,7.74,1.173,3.873,4.461C894.3,602.622,888.824,602.532,884.312,601.913z" style="fill: rgb(255, 255, 255);"/>
			<path fill="#786B61" d="M846.664,628.463c5.878-5.696,9.166-14.629,5.523-22.369c-3.667-7.786-11.28-13.495-19.555-15.616&#10;&#9;&#9;&#9;&#9;c-10.743-2.742-21.67-1.252-31.759,3.154c-10.251,4.474-19.169,11.315-29.37,15.904c-26.203,11.785-55.83,18.307-84.49,13.37&#10;&#9;&#9;&#9;&#9;c-12.539-2.154-25.054-6.398-35.402-13.967c-4.115-3.02-7.773-6.459-10.964-10.265c5.029,3.378,10.964,5.652,16.544,7.446&#10;&#9;&#9;&#9;&#9;c8.863,2.847,18.18,4.619,27.504,4.779c15.827,0.261,34.858-5.356,41.583-19.979c-7.556,13.482-30.289,18.079-43.146,17.41&#10;&#9;&#9;&#9;&#9;c-8.806-0.463-17.584-2.101-25.94-4.915c-8.023-2.704-16.763-6.271-22.323-12.912c-1.013-1.704-1.95-3.468-2.801-5.279&#10;&#9;&#9;&#9;&#9;c8.99,6.453,22.4,6.788,32.724,4.825c12.111-2.314,27.32-9.71,28.078-23.69c-0.07,0.21-0.169,0.224-0.169,0.608&#10;&#9;&#9;&#9;&#9;c0.013,1.68-0.388,3.268-1.112,4.768c-4.512,9.407-21.672,15.276-29.373,16.243c-10.92,1.384-31.059,0.801-35.551-12.201&#10;&#9;&#9;&#9;&#9;c6.279,18.167,13.642,31.162,30.353,42.434c13.989,9.431,30.272,15.296,47.002,17.274c7.96,0.939,15.895,1.173,23.848,0.02&#10;&#9;&#9;&#9;&#9;c8.367-1.224,16.572-3.305,24.817-5.165c13.497-3.047,29.129-5.363,42.519-0.678c3.077,1.079,5.764,2.443,8.242,4.523&#10;&#9;&#9;&#9;&#9;c-14.298-12.057-28.51-11.127-46.489-7.233c-16.386,3.542-32.263,8.082-49.197,6.383c-16.921-1.698-33.735-6.883-47.998-16.283&#10;&#9;&#9;&#9;&#9;c-0.66-0.43-1.307-0.869-1.961-1.32c9.964,5.512,21.095,8.78,32.39,10.247c20.205,2.614,41.3,0.195,60.708-5.819&#10;&#9;&#9;&#9;&#9;c17.943-5.554,33.596-18.435,52.608-21.22c7.365-1.072,18.553-1.035,23.014,6.207c1.766,2.871,2.099,6.183,1.439,9.414&#10;&#9;&#9;&#9;&#9;c-0.463,2.277-1.52,6.253-4.163,7.067c3.656-1.125,6.505-3.593,9.085-6.383c2.513-2.724,4.621-6.382,4.551-10.192&#10;&#9;&#9;&#9;&#9;c0.006,0.191,5.382,3.323,5.953,3.843c1.735,1.595,3.202,3.463,4.183,5.613C849.432,618.574,849.509,624.792,846.664,628.463z&#10;&#9;&#9;&#9;&#9; M833.336,600.514c-4.134-0.323-6.214-5.922-9.907-7.457c-4.553-1.891-9.951-1.816-14.728-1.053&#10;&#9;&#9;&#9;&#9;c4.108-0.68,8.28-1.68,12.464-1.32c4.113,0.355,13.504,0.827,15.252,5.689C837.301,598.847,836.007,600.712,833.336,600.514z" style="fill: rgb(255, 255, 255);"/>
		</g>
	</g>
	<g>
		<line fill="#786B61" x1="1113.265" y1="552.749" x2="86.729" y2="552.749" style="fill: rgb(255, 255, 255);"/>
		<path fill="#786B61" d="M85.522,552.749c0-0.673,0.535-1.211,1.206-1.211h1026.536c0.673,0,1.217,0.537,1.217,1.211&#10;&#9;&#9;&#9;c0,0.667-0.544,1.211-1.217,1.211H86.729C86.058,553.96,85.522,553.416,85.522,552.749z" style="fill: rgb(255, 255, 255);"/>
	</g>
	<path fill="#786B61" d="M928.733,581.494h220.024c0.167,0,0.303-0.132,0.303-0.3c0-0.167-0.136-0.3-0.303-0.3H928.851&#10;&#9;&#9;C928.816,581.09,928.774,581.297,928.733,581.494z" style="fill: rgb(255, 255, 255);"/>
	<path fill="#786B61" d="M928.983,580.014h219.773c0.687,0,1.244-0.557,1.244-1.246c0-0.689-0.557-1.246-1.244-1.246H929.178&#10;&#9;&#9;C929.152,578.272,929.097,579.123,928.983,580.014z" style="fill: rgb(255, 255, 255);"/>
	<g>
		<path fill="#786B61" d="M282.148,577.522H51.244c-0.693,0-1.244,0.557-1.244,1.246c0,0.689,0.55,1.246,1.244,1.246h231.111&#10;&#9;&#9;&#9;C282.225,579.099,282.168,578.244,282.148,577.522z" style="fill: rgb(255, 255, 255);"/>
	</g>
	<g>
		<path fill="#786B61" d="M282.501,580.893H51.244c-0.173,0-0.305,0.134-0.305,0.3c0,0.169,0.132,0.3,0.305,0.3h231.398&#10;&#9;&#9;&#9;C282.591,581.29,282.545,581.09,282.501,580.893z" style="fill: rgb(255, 255, 255);"/>
	</g>
</g>
</svg>